

Release info:

General
Format                                   : Matroska
Format version                           : Version 2
File size                                : 701 MiB
Duration                                 : 1h 24mn
Overall bit rate                         : 1 165 Kbps

Video
ID                                       : 1
Format                                   : MPEG-4 Visual
Format profile                           : Advanced Simple@L5
Format settings, BVOP                    : Yes
Format settings, QPel                    : No
Format settings, GMC                     : No warppoints
Format settings, Matrix                  : Default (H.263)
Codec ID                                 : V_MS/VFW/FOURCC / XVID
Codec ID/Hint                            : XviD
Duration                                 : 1h 24mn
Bit rate                                 : 1 014 Kbps
Width                                    : 720 pixels
Height                                   : 400 pixels
Display aspect ratio                     : 16:9
Frame rate mode                          : Constant
Frame rate                               : 30.000 fps
Color space                              : YUV
Chroma subsampling                       : 4:2:0
Bit depth                                : 8 bits
Scan type                                : Progressive
Compression mode                         : Lossy
Bits/(Pixel*Frame)                       : 0.117
Stream size                              : 610 MiB (87%)
Writing library                          : XviD 64
Language                                 : English
Default                                  : Yes
Forced                                   : No

Audio
ID                                       : 2
Format                                   : MPEG Audio
Format version                           : Version 1
Format profile                           : Layer 3
Mode                                     : Joint stereo
Mode extension                           : MS Stereo
Muxing mode                              : Header stripping
Codec ID                                 : A_MPEG/L3
Codec ID/Hint                            : MP3
Duration                                 : 1h 24mn
Bit rate mode                            : Constant
Bit rate                                 : 128 Kbps
Channel(s)                               : 2 channels
Sampling rate                            : 48.0 KHz
Compression mode                         : Lossy
Stream size                              : 77.0 MiB (11%)
Language                                 : English
Default                                  : Yes
Forced                                   : No


Source:
credit to original movie ripper RESiSTANCE (Thanks)

IMDB Info:

After being struck and killed by lightning, a young man recounts the way he blackmailed his fellow classmates into contributing to his literary magazine.

Director: Brian Dannelly
Writer: Chris Colfer
Stars: Chris Colfer, Rebel Wilson and Christina Hendricks 

Genres: Comedy | Drama
 
http://www.imdb.com/title/tt1791614/

Screen Shot:
 
http://www.shotpix.com/images/16196770816688791128.png 
http://www.shotpix.com/images/82841013328567717606.png 
http://www.shotpix.com/images/99939614419095589586.png 
http://www.shotpix.com/images/73295519599410974179.png 
http://www.shotpix.com/images/59992529658904791103.png 
http://www.shotpix.com/images/31122805061227178043.png 
http://www.shotpix.com/images/30999876757922202334.png